<svg width="21" height="20" viewBox="0 0 21 20" fill="none" xmlns="http://www.w3.org/2000/svg">
<path d="M19.9005 0.149292H10.8496V2.53635H19.9005V0.149292Z" fill="#2F9764"/>
<path d="M19.9005 3.52258H10.8496V5.90964H19.9005V3.52258Z" fill="#2F9764"/>
<path d="M19.9005 6.82129H10.8496V9.20835H19.9005V6.82129Z" fill="#2F9764"/>
<path d="M7.20254 16.2703C6.8337 16.2703 6.47314 16.3796 6.16646 16.5846C5.85978 16.7895 5.62075 17.0807 5.4796 17.4215C5.33845 17.7623 5.30152 18.1372 5.37348 18.499C5.44544 18.8607 5.62305 19.193 5.88386 19.4538C6.14467 19.7146 6.47696 19.8923 6.83872 19.9642C7.20047 20.0362 7.57544 19.9992 7.9162 19.8581C8.25697 19.7169 8.54822 19.4779 8.75314 19.1712C8.95806 18.8646 9.06743 18.504 9.06743 18.1352C9.06743 17.8903 9.01919 17.6478 8.92547 17.4215C8.83175 17.1952 8.69439 16.9896 8.52122 16.8165C8.34804 16.6433 8.14246 16.5059 7.9162 16.4122C7.68994 16.3185 7.44744 16.2703 7.20254 16.2703Z" fill="#2F9764"/>
<path d="M1.87318 16.2703C1.50399 16.2686 1.14262 16.3766 0.834854 16.5805C0.527086 16.7845 0.286768 17.0751 0.144348 17.4157C0.00192651 17.7564 -0.0361891 18.1316 0.0348294 18.4939C0.105848 18.8562 0.282805 19.1893 0.543281 19.4509C0.803758 19.7125 1.13603 19.891 1.49801 19.9636C1.85999 20.0362 2.23538 19.9998 2.57663 19.8589C2.91787 19.718 3.20962 19.479 3.41491 19.1721C3.62019 18.8653 3.72978 18.5044 3.72978 18.1352C3.73087 17.8907 3.68366 17.6483 3.59084 17.4221C3.49803 17.1959 3.36145 16.9903 3.18894 16.817C3.01643 16.6437 2.81139 16.5062 2.58559 16.4124C2.3598 16.3186 2.11769 16.2703 1.87318 16.2703Z" fill="#2F9764"/>
<path d="M7.20254 10.866C6.8337 10.866 6.47314 10.9753 6.16646 11.1803C5.85978 11.3852 5.62075 11.6764 5.4796 12.0172C5.33845 12.358 5.30152 12.7329 5.37348 13.0947C5.44544 13.4564 5.62305 13.7887 5.88386 14.0495C6.14467 14.3103 6.47696 14.488 6.83872 14.5599C7.20047 14.6319 7.57544 14.5949 7.9162 14.4538C8.25697 14.3126 8.54822 14.0736 8.75314 13.7669C8.95806 13.4603 9.06743 13.0997 9.06743 12.7309C9.06743 12.486 9.01919 12.2435 8.92547 12.0172C8.83175 11.7909 8.69439 11.5854 8.52122 11.4122C8.34804 11.239 8.14246 11.1016 7.9162 11.0079C7.68994 10.9142 7.44744 10.866 7.20254 10.866Z" fill="#2F9764"/>
<path d="M1.87318 10.866C1.50399 10.8643 1.14262 10.9723 0.834854 11.1762C0.527086 11.3802 0.286768 11.6708 0.144348 12.0115C0.00192651 12.3521 -0.0361891 12.7273 0.0348294 13.0896C0.105848 13.4519 0.282805 13.785 0.543281 14.0466C0.803758 14.3082 1.13603 14.4867 1.49801 14.5593C1.85999 14.6319 2.23538 14.5955 2.57663 14.4546C2.91787 14.3137 3.20962 14.0747 3.41491 13.7678C3.62019 13.461 3.72978 13.1001 3.72978 12.7309C3.73087 12.4864 3.68366 12.2441 3.59084 12.0178C3.49803 11.7916 3.36145 11.586 3.18894 11.4127C3.01643 11.2394 2.81139 11.1019 2.58559 11.0081C2.3598 10.9143 2.11769 10.866 1.87318 10.866Z" fill="#2F9764"/>
<path d="M15.5077 10.5098C14.5877 10.5081 13.6879 10.7794 12.9222 11.2894C12.1564 11.7993 11.5591 12.5249 11.2059 13.3744C10.8527 14.2239 10.7595 15.1591 10.9379 16.0616C11.1164 16.9641 11.5586 17.7934 12.2086 18.4445C12.8585 19.0956 13.687 19.5393 14.5892 19.7194C15.4914 19.8995 16.4268 19.8079 17.2769 19.4562C18.127 19.1045 18.8537 18.5085 19.365 17.7437C19.8763 16.9789 20.1492 16.0796 20.1492 15.1596C20.1492 13.9278 19.6605 12.7464 18.7902 11.8746C17.92 11.0028 16.7395 10.512 15.5077 10.5098ZM15.5077 17.414H15.2508L15.5077 15.1679L13.3693 15.9221C13.2223 15.4996 13.2039 15.043 13.3164 14.61C13.4288 14.177 13.6671 13.7871 14.0011 13.4894C14.335 13.1918 14.7498 12.9999 15.1928 12.9379C15.6358 12.8759 16.0873 12.9466 16.4902 13.141C16.893 13.3355 17.2292 13.6451 17.4562 14.0305C17.6832 14.416 17.7909 14.8601 17.7655 15.3068C17.7402 15.7534 17.5831 16.1825 17.314 16.5399C17.0449 16.8972 16.6759 17.1668 16.2537 17.3146C16.0108 17.3974 15.756 17.4394 15.4994 17.4389L15.5077 17.414Z" fill="#2F9764"/>
<path d="M4.65808 9.25131e-06C4.16797 -0.00108353 3.68247 0.0946443 3.22946 0.281696C2.77645 0.468748 2.36484 0.74344 2.01828 1.09C1.67172 1.43656 1.39703 1.84816 1.20998 2.30117C1.02293 2.75418 0.9272 3.23968 0.928293 3.72979C0.928293 5.78531 4.65808 9.80519 4.65808 9.80519C4.65808 9.80519 8.38786 5.80189 8.38786 3.72979C8.38786 2.74059 7.9949 1.79191 7.29543 1.09244C6.59596 0.392967 5.64728 9.25131e-06 4.65808 9.25131e-06Z" fill="#2F9764"/>
</svg>