<svg width="408" height="404" viewBox="0 0 408 404" title="Logo for Bloom Works" xmlns="http://www.w3.org/2000/svg"><g fill="#fff" fill-rule="evenodd"><path d="M219 51h184V3H219zM219 119h184V71H219zM219 187h184v-50H219zM145.5 219c-21.263 0-38.5 17.013-38.5 38s17.237 38 38.5 38 38.5-17.013 38.5-38-17.237-38-38.5-38M38.5 219C17.237 219 0 236.013 0 257s17.237 38 38.5 38S77 277.987 77 257s-17.237-38-38.5-38M314 351.907c-1.744 0-3.463-.107-5.156-.297l5.157-45.61-43.298 15.234a45.663 45.663 0 01-2.61-15.234c0-25.312 20.593-45.907 45.907-45.907 25.314 0 45.907 20.595 45.907 45.907 0 25.313-20.593 45.907-45.907 45.907M314 212c-51.832 0-94 42.17-94 94 0 51.831 42.168 94 94 94s94-42.169 94-94c0-51.83-42.168-94-94-94M94 0C52.58 0 19 33.53 19 74.89S94 197 94 197s75-80.75 75-122.11S135.421 0 94 0M145.5 328c-21.263 0-38.5 17.013-38.5 38s17.237 38 38.5 38 38.5-17.013 38.5-38-17.237-38-38.5-38M0 366c0 20.987 17.237 38 38.5 38S77 386.987 77 366s-17.237-38-38.5-38S0 345.013 0 366z"/></g></svg>